# xmcd
#
# Track frame offsets: 
#        150
#        20722
#        41683
#        68878
#        90299
#
# Disc length: 1402 seconds
#
# Revision: 0
# Processed by: cddbd v1.4PL0 Copyright (c) Steve Scherf et al.
# Submitted via: ExactAudioCopy v0.95a3
#
DISCID=38057805
DTITLE=De Bommelband - In Mijn Hart
DYEAR=2003
DGENRE=Folk/Rock
TTITLE0=In Mijn Hart
TTITLE1=Ik Ben Je Liever Kwijt
TTITLE2=Je Hebt Mij Verlaten
TTITLE3=De Man Die Niet Kon Verliezen
TTITLE4=O Lieve Schat
EXTD=
EXTT0=
EXTT1=
EXTT2=
EXTT3=
EXTT4=
PLAYORDER=
